# xmcd
#
# Track frame offsets: 
#        150
#        13885
#        23791
#        35484
#        52332
#        64163
#        74915
#        82938
#        91129
#        106595
#        119470
#        134284
#        144409
#        161813
#
# Disc length: 2270 seconds
#
# Revision: 0
# Processed by: cddbd v1.5.2PL0 Copyright (c) Steve Scherf et al.
# Submitted via: ExactAudioCopy v1.0b4
#
DISCID=c508dc0e
DTITLE=J. J. Cale - Grasshopper (LP)
DYEAR=1982
DGENRE=Blues
TTITLE0=City Girls
TTITLE1=Devil In Disguise
TTITLE2=One Step Ahead Of The Blues
TTITLE3=You Keep Me Hangin' On
TTITLE4=Downtown L.A.
TTITLE5=Can't Live Here
TTITLE6=Grasshopper
TTITLE7=Drifters Wife
TTITLE8=Don't Wait
TTITLE9=A Thing Going On
TTITLE10=Nobody But You
TTITLE11=Mississippi River
TTITLE12=Does Your Mama Like To Reggae
TTITLE13=Dr. Jive
EXTD=
EXTT0=
EXTT1=
EXTT2=
EXTT3=
EXTT4=
EXTT5=
EXTT6=
EXTT7=
EXTT8=
EXTT9=
EXTT10=
EXTT11=
EXTT12=
EXTT13=
PLAYORDER=
